<svg xmlns="http://www.w3.org/2000/svg" viewBox="0 0 600 500" role="img" aria-labelledby="title"><title id="title">The adventure continues beyond the gate</title><rect width="600" height="500" rx="30" fill="#e6eee5"/><circle cx="300" cy="185" r="120" fill="#efcf8e"/><path d="M0 380Q150 280 300 350T600 325V500H0Z" fill="#a1bea1"/><path d="M176 440V230A124 124 0 0 1 424 230V440H368V230A68 68 0 0 0 232 230V440Z" fill="#477968"/><path d="M232 500L286 268H314L379 500" fill="#f9e2ab"/><path d="M300 200L310 226L338 228L316 247L322 275L300 259L278 275L284 247L262 228L290 226Z" fill="#fffbee"/><text x="300" y="65" text-anchor="middle" fill="#174d3f" font-family="sans-serif" font-size="24" font-weight="bold">Every clue led here.</text></svg>
